<svg width="180" height="25" fill="none" xmlns="http://www.w3.org/2000/svg"><path d="M69.13 3.526v6.847h-7.677V3.526h-4.214v17.948h4.214v-7.226h7.678v7.226h4.243V3.526h-4.243zm19.744 0l-4.416 7.11-4.445-7.11h-4.994l7.303 11.713v6.235h4.243V15.24l7.303-11.713h-4.994zm18.589 0v13.14a.885.885 0 01-.895.904h-6.783V3.526h-4.243v17.948h12.498c1.126 0 2.021-.32 2.656-.99.635-.67.981-1.574.981-2.681V3.526h-4.214zm20.667 0h-12.498v17.948h4.214V7.401h6.783c.549 0 .895.437.895.903v13.141h4.214V7.168c0-1.137-.317-2.01-.981-2.68-.635-.642-1.53-.962-2.627-.962zm19.455 4.807v8.304c0 .496-.346.933-.895.933h-6.783V7.4h6.725c.578 0 .953.409.953.933zm.577-4.807h-12.498v17.948h12.498c1.097 0 1.992-.32 2.656-.99.664-.67.981-1.574.981-2.681V7.197c0-1.136-.317-2.01-.981-2.68-.664-.67-1.53-.991-2.656-.991zM167.444 7.4v4.634h-7.678v-3.7c0-.438.346-.904.895-.904h6.783V7.4zm-8.284-3.874c-1.097 0-2.021.32-2.656.99-.664.67-.981 1.545-.981 2.681v14.277h4.214v-5.536h7.678v5.536h4.214V3.526H159.16zm20.84 0h-4.214v17.948H180V3.526zM15.298 2.855c.52-.087.837-.087.953.03.057.087.086.204 0 .378a5.883 5.883 0 01-.202.292C11.777 8.654 8.515 16.17 7.59 18.327c-.057.146-.144.292-.202.408-.086.146-.202.292-.404.292-.115 0-.26-.03-.52-.175-2.8-1.777-4.502-3.963-4.502-6.352 0-4.312 5.513-8.013 13.335-9.645zm4.388 3.264c.404-.933 1.097-2.972 2.684-3.759.49-.233 1.068-.35 1.616-.379h.232c4.474 0 8.601.612 12.094 1.69.029 0 .115.03.144.059.318.116.49.262.49.437 0 .145-.086.291-.201.408a1.884 1.884 0 01-.231.204c-.808.67-3.233 2.447-7.765 4.195-1.587.612-3.608 1.37-5.686 1.836-1.212.233-5.773.932-3.377-4.691zm21.244.146c.087-.146.202-.292.404-.292.116 0 .26.03.49.175 2.83 1.777 4.533 3.963 4.533 6.352 0 4.312-5.485 8.013-13.336 9.645-.49.087-.837.087-.952-.03-.087-.087-.087-.204 0-.378.057-.088.115-.175.202-.292 4.272-5.099 7.533-12.587 8.457-14.743.087-.204.144-.35.202-.437zM28.72 18.852c-.404.932-1.096 2.972-2.684 3.759-.49.233-1.068.35-1.617.378h-.23c-4.474 0-8.602-.611-12.095-1.69a.303.303 0 01-.144-.058c-.317-.116-.49-.262-.49-.437s.086-.291.201-.408c.058-.058.116-.116.231-.204.809-.64 3.204-2.418 7.765-4.166 1.587-.612 3.608-1.37 5.686-1.836 1.241-.262 5.773-.962 3.377 4.662zM24.16 25c13.364 0 24.16-5.594 24.16-12.5C48.347 5.594 37.523 0 24.16 0 10.824 0 0 5.594 0 12.5S10.824 25 24.16 25z" fill="#193562"/></svg>