<svg width="180" height="25" viewBox="0 0 180 25" fill="none" xmlns="http://www.w3.org/2000/svg">
<path d="M69.1309 3.52564V10.373H61.4529V3.52564H57.2386V21.4744H61.4529V14.2483H69.1309V21.4744H73.374V3.52564H69.1309Z" fill="#193562"/>
<path d="M88.8743 3.52564L84.458 10.6352L80.0128 3.52564H75.0192L82.322 15.2389V21.4744H86.5651V15.2389L93.8679 3.52564H88.8743Z" fill="#193562"/>
<path d="M107.463 3.52564V16.6667C107.463 17.162 107.088 17.5699 106.568 17.5699H99.7851V3.52564H95.542V21.4744H108.04C109.166 21.4744 110.061 21.1538 110.696 20.4837C111.331 19.8135 111.677 18.9103 111.677 17.803V3.52564H107.463Z" fill="#193562"/>
<path d="M128.13 3.52564H115.632V21.4744H119.846V7.40093H126.629C127.178 7.40093 127.524 7.838 127.524 8.3042V21.4452H131.738V7.16783C131.738 6.03147 131.421 5.15734 130.757 4.48718C130.122 3.84615 129.227 3.52564 128.13 3.52564Z" fill="#193562"/>
<path d="M147.585 8.33333V16.6375C147.585 17.1329 147.239 17.5699 146.69 17.5699H139.907V7.40093H146.632C147.21 7.40093 147.585 7.80886 147.585 8.33333ZM148.162 3.52564H135.664V21.4744H148.162C149.259 21.4744 150.154 21.1538 150.818 20.4837C151.482 19.8135 151.799 18.9103 151.799 17.803V7.19697C151.799 6.06061 151.482 5.18648 150.818 4.51632C150.154 3.84615 149.288 3.52564 148.162 3.52564Z" fill="#193562"/>
<path d="M167.444 7.40093V12.0338H159.766V8.33333C159.766 7.89627 160.112 7.43007 160.661 7.43007H167.444V7.40093ZM159.16 3.52564C158.063 3.52564 157.139 3.84615 156.504 4.51632C155.84 5.18648 155.523 6.06061 155.523 7.19697V21.4744H159.737V15.9382H167.415V21.4744H171.629V3.52564H159.16Z" fill="#193562"/>
<path d="M180 3.52564H175.786V21.4744H180V3.52564Z" fill="#193562"/>
<path d="M15.2983 2.85548C15.8178 2.76807 16.1353 2.76806 16.2508 2.88462C16.3085 2.97203 16.3374 3.08858 16.2508 3.2634C16.1931 3.35082 16.1353 3.43823 16.0488 3.55478C11.7768 8.65385 8.51507 16.1713 7.59141 18.3275C7.53368 18.4732 7.44708 18.6189 7.38935 18.7354C7.30276 18.8811 7.1873 19.0268 6.98525 19.0268C6.86979 19.0268 6.72547 18.9977 6.46568 18.852C3.66581 17.0746 1.9628 14.8893 1.9628 12.5C1.9628 8.18765 7.47595 4.48718 15.2983 2.85548ZM19.6857 6.11888C20.0898 5.18648 20.7826 3.14685 22.3701 2.36014C22.8608 2.12704 23.4381 2.01049 23.9865 1.98135C24.102 1.98135 24.1886 1.98135 24.2175 1.98135C28.6915 1.98135 32.8191 2.59324 36.3117 3.67133C36.3406 3.67133 36.4272 3.70047 36.4561 3.7296C36.7736 3.84615 36.9468 3.99184 36.9468 4.16667C36.9468 4.31235 36.8602 4.45804 36.7447 4.57459C36.687 4.63287 36.6293 4.69114 36.5138 4.77855C35.7056 5.44872 33.281 7.22611 28.7492 8.97436C27.1616 9.58625 25.1411 10.3438 23.0629 10.81C21.8505 11.0431 17.2899 11.7424 19.6857 6.11888ZM40.9301 6.26457C41.0167 6.11888 41.1321 5.97319 41.3342 5.97319C41.4497 5.97319 41.594 6.00233 41.8249 6.14802C44.6536 7.92541 46.3566 10.1107 46.3566 12.5C46.3566 16.8124 40.8724 20.5128 33.0212 22.1445C32.5305 22.2319 32.1841 22.2319 32.0686 22.1154C31.982 22.028 31.982 21.9114 32.0686 21.7366C32.1264 21.6492 32.1841 21.5618 32.2707 21.4452C36.5427 16.3462 39.8044 8.85781 40.728 6.70163C40.8146 6.49767 40.8724 6.35198 40.9301 6.26457ZM28.7203 18.852C28.3162 19.7844 27.6235 21.824 26.0359 22.6107C25.5452 22.8438 24.9679 22.9604 24.4195 22.9895C24.304 22.9895 24.2175 22.9895 24.1886 22.9895C19.7146 22.9895 15.5869 22.3776 12.0943 21.2995C12.0654 21.2995 11.9788 21.2704 11.95 21.2413C11.6325 21.1247 11.4593 20.979 11.4593 20.8042C11.4593 20.6294 11.5459 20.5128 11.6613 20.3963C11.7191 20.338 11.7768 20.2797 11.8922 20.1923C12.7005 19.5513 15.0962 17.7739 19.6568 16.0256C21.2444 15.4138 23.2649 14.6562 25.3432 14.19C26.5844 13.9277 31.1161 13.2284 28.7203 18.852ZM24.1597 25C37.5241 25 48.3194 19.4056 48.3194 12.5C48.3483 5.59441 37.5241 0 24.1597 0C10.8242 0 0 5.59441 0 12.5C0 19.4056 10.8242 25 24.1597 25Z" fill="#193562"/>
</svg>
